<svg width="223" height="122" viewBox="0 0 223 122" fill="none" xmlns="http://www.w3.org/2000/svg">
<path d="M2.592 47.184V31.92H29.184V102H12.096V47.184H2.592ZM49.7258 102.768C46.8458 102.768 44.4778 101.936 42.6218 100.272C40.8298 98.544 39.9338 96.432 39.9338 93.936C39.9338 91.376 40.8298 89.232 42.6218 87.504C44.4778 85.776 46.8458 84.912 49.7258 84.912C52.5418 84.912 54.8458 85.776 56.6378 87.504C58.4938 89.232 59.4218 91.376 59.4218 93.936C59.4218 96.432 58.4938 98.544 56.6378 100.272C54.8458 101.936 52.5418 102.768 49.7258 102.768ZM79.0275 64.368C73.0115 61.168 70.0035 56.144 70.0035 49.296C70.0035 45.84 70.8995 42.704 72.6915 39.888C74.4835 37.008 77.2035 34.736 80.8515 33.072C84.4995 31.344 88.9795 30.48 94.2915 30.48C99.6035 30.48 104.052 31.344 107.636 33.072C111.284 34.736 114.004 37.008 115.796 39.888C117.588 42.704 118.484 45.84 118.484 49.296C118.484 52.752 117.652 55.76 115.988 58.32C114.388 60.88 112.212 62.896 109.46 64.368C112.916 66.032 115.572 68.336 117.427 71.28C119.284 74.16 120.212 77.552 120.212 81.456C120.212 86 119.06 89.936 116.756 93.264C114.452 96.528 111.316 99.024 107.348 100.752C103.444 102.48 99.0915 103.344 94.2915 103.344C89.4915 103.344 85.1075 102.48 81.1395 100.752C77.2355 99.024 74.1315 96.528 71.8275 93.264C69.5235 89.936 68.3715 86 68.3715 81.456C68.3715 77.488 69.2995 74.064 71.1555 71.184C73.0115 68.24 75.6355 65.968 79.0275 64.368ZM102.548 51.792C102.548 49.168 101.78 47.152 100.244 45.744C98.7715 44.272 96.7875 43.536 94.2915 43.536C91.7955 43.536 89.7795 44.272 88.2435 45.744C86.7715 47.216 86.0355 49.264 86.0355 51.888C86.0355 54.384 86.8035 56.368 88.3395 57.84C89.8755 59.248 91.8595 59.952 94.2915 59.952C96.7235 59.952 98.7075 59.216 100.244 57.744C101.78 56.272 102.548 54.288 102.548 51.792ZM94.2915 71.472C91.2835 71.472 88.8515 72.304 86.9955 73.968C85.1395 75.568 84.2115 77.808 84.2115 80.688C84.2115 83.376 85.1075 85.584 86.8995 87.312C88.7555 89.04 91.2195 89.904 94.2915 89.904C97.3635 89.904 99.7635 89.04 101.492 87.312C103.284 85.584 104.18 83.376 104.18 80.688C104.18 77.872 103.252 75.632 101.396 73.968C99.6035 72.304 97.2355 71.472 94.2915 71.472ZM151.23 102L140.35 87.024V102H129.406V54.64H140.35V80.816L151.166 66.288H164.67L149.822 84.208L164.798 102H151.23Z" fill="#1D827E"/>
<circle cx="201.5" cy="21.5" r="21.5" fill="#1D827E"/>
<path d="M205.328 18.7964C206.837 18.7964 208.035 19.2536 208.92 20.1681C209.82 21.0825 210.27 22.3526 210.27 23.9782V31.0759H206.569V24.479C206.569 23.6952 206.358 23.0928 205.937 22.6719C205.531 22.2364 204.965 22.0187 204.239 22.0187C203.513 22.0187 202.94 22.2364 202.519 22.6719C202.113 23.0928 201.909 23.6952 201.909 24.479V31.0759H198.208V24.479C198.208 23.6952 197.998 23.0928 197.577 22.6719C197.17 22.2364 196.604 22.0187 195.879 22.0187C195.153 22.0187 194.58 22.2364 194.159 22.6719C193.752 23.0928 193.549 23.6952 193.549 24.479V31.0759H189.826V18.9271H193.549V20.4511C193.926 19.9431 194.42 19.5439 195.029 19.2536C195.639 18.9488 196.329 18.7964 197.098 18.7964C198.012 18.7964 198.825 18.9924 199.536 19.3843C200.262 19.7762 200.828 20.335 201.235 21.0607C201.655 20.3931 202.229 19.8488 202.955 19.4278C203.68 19.0069 204.471 18.7964 205.328 18.7964Z" fill="white"/>
<path d="M209.815 17.5845C210.062 17.3886 210.174 17.2979 210.152 17.3124C210.864 16.7245 211.423 16.2419 211.829 15.8645C212.243 15.4872 212.591 15.0916 212.874 14.678C213.157 14.2643 213.299 13.8615 213.299 13.4696C213.299 13.172 213.23 12.9398 213.092 12.7729C212.954 12.606 212.747 12.5225 212.471 12.5225C212.195 12.5225 211.978 12.6277 211.818 12.8382C211.666 13.0414 211.589 13.3317 211.589 13.7091H209.793C209.808 13.0922 209.938 12.5769 210.185 12.1633C210.439 11.7496 210.769 11.4448 211.176 11.2488C211.589 11.0529 212.047 10.9549 212.547 10.9549C213.411 10.9549 214.061 11.1763 214.496 11.619C214.939 12.0617 215.16 12.6386 215.16 13.3499C215.16 14.1264 214.895 14.8485 214.365 15.5162C213.836 16.1766 213.161 16.8225 212.341 17.4539H215.28V18.9671H209.815V17.5845Z" fill="white"/>
</svg>
